<?xml version="1.0" encoding="UTF-8" standalone="no"?>
<svg
   width="24"
   height="24"
   viewBox="0 0 24 24"
   fill="none"
   version="1.1"
   id="svg4"
   sodipodi:docname="md-layer-delete.svg"
   inkscape:version="1.1.2 (0a00cf5339, 2022-02-04, custom)"
   xmlns:inkscape="http://www.inkscape.org/namespaces/inkscape"
   xmlns:sodipodi="http://sodipodi.sourceforge.net/DTD/sodipodi-0.dtd"
   xmlns="http://www.w3.org/2000/svg"
   xmlns:svg="http://www.w3.org/2000/svg">
  <defs
     id="defs8" />
  <sodipodi:namedview
     id="namedview6"
     pagecolor="#ffffff"
     bordercolor="#666666"
     borderopacity="1.0"
     inkscape:pageshadow="2"
     inkscape:pageopacity="0.0"
     inkscape:pagecheckerboard="0"
     showgrid="false"
     inkscape:zoom="22.892582"
     inkscape:cx="9.9595581"
     inkscape:cy="14.961178"
     inkscape:window-width="2264"
     inkscape:window-height="995"
     inkscape:window-x="947"
     inkscape:window-y="52"
     inkscape:window-maximized="0"
     inkscape:current-layer="svg4"
     showguides="true"
     inkscape:guide-bbox="true">
    <sodipodi:guide
       position="28.26243,4.4740243"
       orientation="0,-1"
       id="guide823" />
  </sodipodi:namedview>
  <g
     id="g828"
     transform="matrix(1.1962746,0,0,1.1962746,-3.5550403,-3.5317282)">
    <path
       d="m 20.0256,12.1922 c -0.1484,0.2374 -0.345,0.441 -0.577,0.5977 l -6.0499,4.0837 c -0.8452,0.5705 -1.9522,0.5705 -2.7974,0 L 4.55142,12.7899 C 3.79043,12.2762 3.49533,11.3306 3.77229,10.5003 l 6.84091,4.5595 c 0.7873,0.5249 1.798,0.5577 2.6132,0.0984 l 0.1603,-0.0984 6.8404,-4.56 c 0.1817,0.5461 0.1274,1.1662 -0.2015,1.6924 z m 0.2015,1.5576 c 0.1817,0.5461 0.1274,1.1662 -0.2015,1.6924 -0.1484,0.2374 -0.345,0.441 -0.577,0.5977 l -6.0499,4.0837 c -0.8452,0.5705 -1.9522,0.5705 -2.7974,0 L 4.55142,16.0399 C 3.79043,15.5262 3.49533,14.5806 3.77229,13.7503 l 6.84091,4.5595 c 0.7873,0.5249 1.798,0.5577 2.6132,0.0984 l 0.1603,-0.0984 z M 13.3867,3.42476 19.7519,7.66821 c 0.4596,0.30635 0.5837,0.92722 0.2774,1.38675 -0.0733,0.10985 -0.1675,0.20411 -0.2774,0.27735 l -6.3652,4.24349 c -0.8397,0.5598 -1.9337,0.5598 -2.7735,0 L 4.24807,9.33231 C 3.78854,9.02595 3.66437,8.40509 3.97072,7.94556 4.04396,7.8357 4.13822,7.74144 4.24807,7.66821 L 10.6132,3.42476 c 0.8398,-0.55984 1.9338,-0.55984 2.7735,0 z M 11.5608,4.60648 11.4453,4.67283 5.705,8.50026 11.4453,12.3277 c 0.2986,0.199 0.6775,0.2211 0.9939,0.0663 L 12.5547,12.3277 18.294,8.50026 12.5547,4.67283 C 12.2561,4.47378 11.8772,4.45166 11.5608,4.60648 Z"
       fill="#212121"
       id="path2" />
    <ellipse
       style="fill:#ffffff;stroke:#000000;stroke-width:1.00866;stroke-opacity:0.00400546"
       id="path855"
       cx="17.896688"
       cy="17.990728"
       rx="6.4439111"
       ry="6.4858546" />
    <path
       d="m 17.838935,22.986046 c 2.76142,0 5,-2.23858 5,-5 0,-2.76142 -2.23858,-5 -5,-5 -2.76142,0 -5,2.23858 -5,5 0,2.76142 2.23858,5 5,5 z m 1.85355,-6.85355 c 0.19527,0.19526 0.19527,0.51184 0,0.7071 l -1.14644,1.14645 1.14644,1.14645 c 0.19527,0.19526 0.19527,0.51184 0,0.7071 -0.19526,0.19527 -0.51184,0.19527 -0.7071,0 l -1.14645,-1.14644 -1.14645,1.14644 c -0.19526,0.19527 -0.51184,0.19527 -0.7071,0 -0.19527,-0.19526 -0.19527,-0.51184 0,-0.7071 l 1.14644,-1.14645 -1.14644,-1.14645 c -0.19527,-0.19526 -0.19527,-0.51184 0,-0.7071 0.19526,-0.19527 0.51184,-0.19527 0.7071,0 l 1.14645,1.14644 1.14645,-1.14644 c 0.19526,-0.19527 0.51184,-0.19527 0.7071,0 z"
       fill="#212121"
       id="path2-5" />
  </g>
</svg>
