<?xml version="1.0" encoding="UTF-8" standalone="no"?>
<svg
   width="76.01px"
   height="76.01px"
   viewBox="0 0 76.01 76.01"
   version="1.1"
   enable-background="new 0 0 76.01 76.01"
   xml:space="preserve"
   id="svg4"
   sodipodi:docname="md-layer-delete.svg"
   inkscape:version="1.1.2 (0a00cf5339, 2022-02-04)"
   xmlns:inkscape="http://www.inkscape.org/namespaces/inkscape"
   xmlns:sodipodi="http://sodipodi.sourceforge.net/DTD/sodipodi-0.dtd"
   xmlns="http://www.w3.org/2000/svg"
   xmlns:svg="http://www.w3.org/2000/svg"><defs
   id="defs8" /><sodipodi:namedview
   id="namedview6"
   pagecolor="#ffffff"
   bordercolor="#666666"
   borderopacity="1.0"
   inkscape:pageshadow="2"
   inkscape:pageopacity="0.0"
   inkscape:pagecheckerboard="0"
   showgrid="false"
   inkscape:zoom="10.222339"
   inkscape:cx="38.005001"
   inkscape:cy="30.179003"
   inkscape:window-width="3840"
   inkscape:window-height="1015"
   inkscape:window-x="0"
   inkscape:window-y="32"
   inkscape:window-maximized="1"
   inkscape:current-layer="svg4" />
	<path
   fill="#000000"
   fill-opacity="1"
   stroke-width="0.384332"
   stroke-linejoin="round"
   d="M 1.0522134,48.112162 7.5066851,41.65769 18.263946,52.414951 29.021206,41.65769 35.475678,48.112162 24.718417,58.869423 35.475678,69.626683 29.021206,76.081155 18.263946,65.323702 7.5066851,76.081155 1.0522134,69.626683 11.809666,58.869423 Z M 75.034395,36.520516 38.517858,54.778785 l -2.415719,-1.207763 5.45886,-5.45886 -8.326553,-8.147262 5.283412,2.641706 24.344358,-12.172179 z m -73.0332658,0 12.1723708,-6.086089 13.443357,6.721774 -4.680779,4.68078 -3.434007,3.434007 -4.593728,-2.296961 -7.4016579,-7.222367 -2.347692,2.347692 z M 38.517858,0.00397896 75.034395,18.262248 38.517858,36.520516 2.0011292,18.262248 Z M 75.034395,54.778785 38.517858,73.037246 l -0.245012,-0.122602 3.288153,-3.287961 -10.757453,-10.75726 1.241008,-1.241008 6.473304,3.236652 24.344358,-12.172372 z"
   id="path2" />
</svg>
