<?xml version="1.0" encoding="UTF-8" standalone="no"?>
<svg
   width="76.01px"
   height="76.01px"
   viewBox="0 0 76.01 76.01"
   version="1.1"
   enable-background="new 0 0 76.01 76.01"
   xml:space="preserve"
   id="svg4"
   sodipodi:docname="md-layer-add.svg"
   inkscape:version="1.1.2 (0a00cf5339, 2022-02-04)"
   xmlns:inkscape="http://www.inkscape.org/namespaces/inkscape"
   xmlns:sodipodi="http://sodipodi.sourceforge.net/DTD/sodipodi-0.dtd"
   xmlns="http://www.w3.org/2000/svg"
   xmlns:svg="http://www.w3.org/2000/svg"><defs
   id="defs8" /><sodipodi:namedview
   id="namedview6"
   pagecolor="#ffffff"
   bordercolor="#666666"
   borderopacity="1.0"
   inkscape:pageshadow="2"
   inkscape:pageopacity="0.0"
   inkscape:pagecheckerboard="0"
   showgrid="false"
   inkscape:zoom="10.222339"
   inkscape:cx="38.005001"
   inkscape:cy="25.97253"
   inkscape:window-width="3840"
   inkscape:window-height="1015"
   inkscape:window-x="0"
   inkscape:window-y="32"
   inkscape:window-maximized="1"
   inkscape:current-layer="svg4" />
	<path
   fill="#000000"
   fill-opacity="1"
   stroke-width="0.399438"
   stroke-linejoin="round"
   d="m 15.83133,34.866277 h 9.486656 v 15.81116 h 15.811159 v 9.486656 H 25.317986 v 15.81116 H 15.83133 V 60.164093 H 0.0203687 V 50.677437 H 15.83133 Z M 37.972186,0.07721036 75.924003,19.05312 37.972186,38.029028 28.480736,33.283304 V 31.703725 H 25.321581 L 0.0203687,19.05312 Z M 75.924003,57.004937 37.972186,75.981045 28.480736,71.235121 v -7.908276 h 9.485658 l 0.0058,0.0034 0.007,-0.0034 h 6.312122 l 2e-4,-3.156161 18.9819,-9.491051 z m 0,-18.975909 -31.632306,15.816154 v -6.330297 h -6.324904 l -9.486057,-1.99e-4 v -7.90608 l 9.49145,4.745725 25.301212,-12.650606 z m -75.9036343,0 12.6488083,-6.324504 -5.99e-4,6.324504 2e-4,6.324304 z"
   id="path2" />
</svg>
