<?xml version="1.0" encoding="UTF-8" standalone="no"?>
<svg
   width="24"
   height="24"
   viewBox="0 0 24 24"
   fill="none"
   version="1.1"
   id="svg4"
   sodipodi:docname="md-layer-copy.svg"
   inkscape:version="1.1.2 (0a00cf5339, 2022-02-04, custom)"
   xmlns:inkscape="http://www.inkscape.org/namespaces/inkscape"
   xmlns:sodipodi="http://sodipodi.sourceforge.net/DTD/sodipodi-0.dtd"
   xmlns="http://www.w3.org/2000/svg"
   xmlns:svg="http://www.w3.org/2000/svg">
  <defs
     id="defs8" />
  <sodipodi:namedview
     id="namedview6"
     pagecolor="#ffffff"
     bordercolor="#666666"
     borderopacity="1.0"
     inkscape:pageshadow="2"
     inkscape:pageopacity="0.0"
     inkscape:pagecheckerboard="0"
     showgrid="false"
     inkscape:zoom="32.375"
     inkscape:cx="11.984556"
     inkscape:cy="12"
     inkscape:window-width="3840"
     inkscape:window-height="1015"
     inkscape:window-x="0"
     inkscape:window-y="32"
     inkscape:window-maximized="1"
     inkscape:current-layer="svg4" />
  <path
     d="m 2.6496186,5.4537608 0.00321,-2.4322394 C 1.6499528,3.3744834 0.93109391,4.3301779 0.93109391,5.4537608 V 17.488246 c 0,3.005585 2.43646709,5.441995 5.44199489,5.441995 H 12.17437 c -0.489207,-0.508798 -0.906694,-1.087024 -1.236307,-1.71841 l -4.5649742,-1.15e-4 c -2.056421,0 -3.7234702,-1.667084 -3.7234702,-3.72347 z M 19.262024,10.522149 V 2.589553 c 0,-1.4236717 -1.154161,-2.57778712 -2.577787,-2.57778712 H 6.3730888 c -1.4236717,0 -2.577787,1.15411542 -2.577787,2.57778712 v 14.893881 c 0,1.423626 1.1541153,2.577787 2.577787,2.577787 h 4.0826422 c -0.177008,-0.547866 -0.29215,-1.123342 -0.337519,-1.718525 H 6.3730888 c -0.4745534,0 -0.8592623,-0.38472 -0.8592623,-0.859262 V 2.589553 c 0,-0.4745534 0.3847089,-0.8592624 0.8592623,-0.8592624 H 16.684237 c 0.474542,0 0.859263,0.384709 0.859263,0.8592624 v 7.733362 c 0.591516,0 1.166878,0.06897 1.718524,0.199234 z M 17.5435,11.468597 c 3.480127,0 6.301257,2.821131 6.301257,6.301258 0,3.480127 -2.82113,6.301257 -6.301257,6.301257 -3.480128,0 -6.301258,-2.82113 -6.301258,-6.301257 0,-3.480127 2.82113,-6.301258 6.301258,-6.301258 z m 0.574101,9.742317 -5.72e-4,-2.868218 h 2.859625 c 0.316094,0 0.572268,-0.256404 0.572268,-0.572841 0,-0.316323 -0.256174,-0.572842 -0.572268,-0.572842 h -2.85974 l -5.73e-4,-2.86501 c 0,-0.316437 -0.256518,-0.572841 -0.572841,-0.572841 -0.316324,0 -0.572842,0.256404 -0.572842,0.572841 l 5.73e-4,2.86501 h -2.869822 c -0.316094,0 -0.572269,0.256519 -0.572269,0.572842 0,0.316437 0.256175,0.572841 0.572269,0.572841 h 2.869936 l 5.73e-4,2.868218 c 0,0.316438 0.256519,0.572842 0.572842,0.572842 0.316438,0 0.572841,-0.256404 0.572841,-0.572842 z"
     fill="#212121"
     id="path2"
     style="stroke-width:1.14568" />
</svg>
