<?xml version="1.0" encoding="UTF-8" standalone="no"?>
<svg
   width="20"
   height="20"
   viewBox="0 0 20 20"
   fill="none"
   version="1.1"
   id="svg4"
   sodipodi:docname="md-switch-color.svg"
   inkscape:version="1.1.2 (0a00cf5339, 2022-02-04, custom)"
   xmlns:inkscape="http://www.inkscape.org/namespaces/inkscape"
   xmlns:sodipodi="http://sodipodi.sourceforge.net/DTD/sodipodi-0.dtd"
   xmlns="http://www.w3.org/2000/svg"
   xmlns:svg="http://www.w3.org/2000/svg">
  <defs
     id="defs8" />
  <sodipodi:namedview
     id="namedview6"
     pagecolor="#ffffff"
     bordercolor="#666666"
     borderopacity="1.0"
     inkscape:pageshadow="2"
     inkscape:pageopacity="0.0"
     inkscape:pagecheckerboard="0"
     showgrid="false"
     inkscape:zoom="38.85"
     inkscape:cx="14.800515"
     inkscape:cy="10.10296"
     inkscape:window-width="2499"
     inkscape:window-height="995"
     inkscape:window-x="706"
     inkscape:window-y="52"
     inkscape:window-maximized="0"
     inkscape:current-layer="svg4" />
  <path
     d="m 6.1463975,2.14645 c 0.1953,-0.19527 0.5119,-0.19527 0.7072,0 0.1952,0.19526 0.1952,0.51184 0,0.7071 L 3.7070975,6 h 7.2928995 c 1.656851,0 3,1.34315 3,3 v 7.2929 l 3.14645,-3.1465 c 0.19526,-0.1952 0.51184,-0.1952 0.7071,0 0.19527,0.1953 0.19527,0.5119 0,0.7072 l -4,4 c -0.195259,0.1952 -0.51184,0.1952 -0.7071,0 l -4.0000495,-4 c -0.1952,-0.1953 -0.1952,-0.5119 0,-0.7072 0.1953,-0.1952 0.5119,-0.1952 0.7072,0 l 3.1463995,3.1465 V 9 c 0,-1.10457 -0.89543,-2 -2,-2 H 3.7070975 l 3.1465,3.1464 c 0.1952,0.1953 0.1952,0.5119 0,0.7072 -0.1953,0.1952 -0.5119,0.1952 -0.7072,0 l -4,-4.00005 c -0.1952,-0.19526 -0.1952,-0.51184 0,-0.7071 z"
     fill="#212121"
     id="path2" />
</svg>
