<?xml version="1.0" encoding="UTF-8" standalone="no"?>
<svg
   width="24"
   height="24"
   viewBox="0 0 24 24"
   fill="none"
   version="1.1"
   id="svg4"
   sodipodi:docname="md-tool-pipette.svg"
   inkscape:version="1.1.2 (0a00cf5339, 2022-02-04, custom)"
   xmlns:inkscape="http://www.inkscape.org/namespaces/inkscape"
   xmlns:sodipodi="http://sodipodi.sourceforge.net/DTD/sodipodi-0.dtd"
   xmlns="http://www.w3.org/2000/svg"
   xmlns:svg="http://www.w3.org/2000/svg">
  <defs
     id="defs8" />
  <sodipodi:namedview
     id="namedview6"
     pagecolor="#ffffff"
     bordercolor="#666666"
     borderopacity="1.0"
     inkscape:pageshadow="2"
     inkscape:pageopacity="0.0"
     inkscape:pagecheckerboard="0"
     showgrid="false"
     inkscape:zoom="32.375"
     inkscape:cx="11.984556"
     inkscape:cy="12"
     inkscape:window-width="3840"
     inkscape:window-height="1015"
     inkscape:window-x="0"
     inkscape:window-y="32"
     inkscape:window-maximized="1"
     inkscape:current-layer="svg4" />
  <path
     d="m 22.723788,1.2764628 c -1.665768,-1.66583899 -4.366708,-1.66583899 -6.032476,0 l -2.347976,2.3479643 -0.01502,-0.014972 c -0.814647,-0.8146693 -2.135435,-0.8146693 -2.9502,-1.19e-5 l -0.698182,0.6982895 c -0.8147647,0.8146693 -0.8147647,2.1355057 0,2.9501749 l 0.01502,0.015056 -8.0823932,8.0823334 c -0.5029845,0.503044 -0.7855714,1.185252 -0.7855714,1.896547 v 0.819533 l -1.52620244,2.797974 c -0.99657568,1.827051 1.00322734,3.82695 2.83029064,2.830279 l 2.7980457,-1.526178 h 0.8194494 c 0.7113425,0 1.3935513,-0.282516 1.8965359,-0.78556 l 8.0824404,-8.082322 0.01478,0.01478 c 0.814765,0.814764 2.135554,0.814764 2.9502,0 l 0.698301,-0.698183 c 0.814645,-0.814764 0.814645,-2.135553 0,-2.9501977 l -0.01502,-0.015019 2.347976,-2.3479406 c 1.665887,-1.6658389 1.665887,-4.366697 0,-6.0325467 z M 17.955598,2.54082 c 0.967585,-0.9675493 2.536319,-0.9675493 3.503904,0 0.967467,0.9675612 0.967467,2.536284 0,3.5038333 l -2.980118,2.9801435 c -0.349151,0.3491386 -0.349151,0.9152658 0,1.2642972 l 0.647042,0.647163 c 0.116464,0.116463 0.116464,0.305164 0,0.421508 l -0.698181,0.698301 c -0.116464,0.116344 -0.305164,0.116344 -0.421508,0 L 11.944221,5.9935503 c -0.116345,-0.1163797 -0.116345,-0.3050808 0,-0.4214604 l 0.698301,-0.6982896 c 0.116344,-0.1163795 0.305045,-0.1163795 0.421508,1.2e-5 l 0.647163,0.6471507 c 0.349031,0.3491388 0.915135,0.3491388 1.264285,0 z m -2.492453,9.500346 -8.0823927,8.082321 C 7.2130909,20.291208 6.9856958,20.38538 6.7485737,20.38538 H 5.7011452 c -0.1495781,0 -0.2967841,0.03755 -0.4281,0.109191 l -2.9981906,1.635371 c -0.082406,0.04494 -0.1436179,0.04697 -0.1893448,0.03887 -0.05332,-0.0094 -0.1128631,-0.03851 -0.1640854,-0.08976 -0.051222,-0.05126 -0.080333,-0.110741 -0.089761,-0.164145 -0.00809,-0.04565 -0.00608,-0.106923 0.038861,-0.189296 l 1.6353821,-2.99812 c 0.07163,-0.131364 0.1091678,-0.278582 0.1091678,-0.428183 v -1.047455 c 0,-0.237098 0.094184,-0.464422 0.2618571,-0.632143 L 11.959361,8.5373204 Z"
     fill="#212121"
     id="path2"
     style="stroke-width:1.19204" />
</svg>
