<?xml version="1.0" encoding="UTF-8" standalone="no"?>
<svg
   width="24"
   height="24"
   viewBox="0 0 24 24"
   fill="none"
   version="1.1"
   id="svg4"
   sodipodi:docname="md-tool-move-layer.svg"
   inkscape:version="1.1.2 (0a00cf5339, 2022-02-04, custom)"
   xmlns:inkscape="http://www.inkscape.org/namespaces/inkscape"
   xmlns:sodipodi="http://sodipodi.sourceforge.net/DTD/sodipodi-0.dtd"
   xmlns="http://www.w3.org/2000/svg"
   xmlns:svg="http://www.w3.org/2000/svg">
  <defs
     id="defs8" />
  <sodipodi:namedview
     id="namedview6"
     pagecolor="#ffffff"
     bordercolor="#666666"
     borderopacity="1.0"
     inkscape:pageshadow="2"
     inkscape:pageopacity="0.0"
     inkscape:pagecheckerboard="0"
     showgrid="false"
     inkscape:zoom="32.375"
     inkscape:cx="11.984556"
     inkscape:cy="12"
     inkscape:window-width="3840"
     inkscape:window-height="1015"
     inkscape:window-x="0"
     inkscape:window-y="32"
     inkscape:window-maximized="1"
     inkscape:current-layer="svg4" />
  <path
     d="m 12.020414,17.422796 c 0.455899,0 0.832674,0.338834 0.892228,0.778284 l 0.0083,0.122229 v 2.627096 l 0.864132,-0.862451 c 0.319622,-0.319742 0.819947,-0.348798 1.172468,-0.08717 l 0.100982,0.08717 c 0.319742,0.319621 0.348798,0.819947 0.08717,1.172467 l -0.08717,0.100983 -2.401367,2.401366 -0.04575,0.04275 -0.08669,0.06675 -0.113824,0.06555 -0.103974,0.04215 -0.122831,0.0317 -0.101932,0.01284 h -0.123701 l -0.143841,-0.02161 -0.08153,-0.02318 -0.07072,-0.02714 -0.08512,-0.04239 -0.06148,-0.0383 -0.03758,-0.0269 c -0.03338,-0.02522 -0.06495,-0.05271 -0.0945,-0.08225 L 8.9822644,21.361399 c -0.3516682,-0.35168 -0.3516682,-0.921765 0,-1.273445 0.319706,-0.319742 0.8200069,-0.348798 1.1725276,-0.08717 l 0.100978,0.08717 0.864131,0.863651 v -2.628296 c 0,-0.455899 0.338714,-0.832674 0.778284,-0.892348 z m 0,-9.0051261 c 1.989292,0 3.602051,1.6126381 3.602051,3.6020511 0,1.989412 -1.612759,3.602051 -3.602051,3.602051 -1.989413,0 -3.6020746,-1.612639 -3.6020746,-3.602051 0,-1.989413 1.6126616,-3.6020511 3.6020746,-3.6020511 z m 8.068234,0.5639252 c 0.319621,-0.3196941 0.819946,-0.3487627 1.172467,-0.087194 l 0.100982,0.087194 2.401367,2.4014029 0.04275,0.04574 0.06675,0.08669 0.06555,0.113824 0.04215,0.103855 0.03169,0.12295 0.01272,0.101932 v 0.123431 l -0.02161,0.144082 -0.02306,0.08153 -0.02713,0.0706 -0.04239,0.08512 -0.0383,0.0616 -0.03302,0.04563 -0.07612,0.08645 -2.401367,2.401366 c -0.35168,0.351681 -0.921885,0.351681 -1.273445,0 -0.319742,-0.319621 -0.348799,-0.819946 -0.08729,-1.172467 l 0.08729,-0.100982 0.862451,-0.864131 h -2.627096 c -0.455899,0 -0.832674,-0.338833 -0.892348,-0.778284 l -0.0082,-0.122229 c 0,-0.455899 0.338713,-0.832674 0.778283,-0.892348 l 0.12223,-0.0082 h 2.628296 L 20.08863,10.255073 C 19.768888,9.9354511 19.73983,9.4351262 20.00134,9.0825935 Z m -17.4099723,0 c 0.3516803,-0.3516683 0.9218488,-0.3516683 1.273517,0 0.319706,0.3197059 0.3487746,0.8199827 0.087194,1.1725039 l -0.087194,0.100977 -0.8648883,0.864132 h 2.6294969 c 0.4558995,0 0.8326621,0.338833 0.8923,0.778283 l 0.00821,0.12223 c 0,0.455899 -0.3387728,0.832674 -0.7783191,0.892347 l -0.1221936,0.0082 H 3.088505 l 0.8636877,0.864131 c 0.319706,0.319622 0.3487746,0.819948 0.087194,1.172468 l -0.087194,0.100982 c -0.319694,0.319743 -0.8199828,0.3488 -1.1725155,0.08729 L 2.6786757,15.05781 0.27730856,12.656443 0.16784224,12.524127 0.10232094,12.410183 0.06016494,12.306324 0.02846689,12.183374 0.01519934,12.074233 0.01531941,11.96317 0.0372559,11.813925 l 0.02310116,-0.08153 0.02717146,-0.0706 0.0423241,-0.08512 0.0383139,-0.0616 0.0268953,-0.03758 c 0.0252143,-0.03338 0.05271,-0.06495 0.0822468,-0.0945 z m 9.3417383,1.2370999 c -0.994646,0 -1.801025,0.806379 -1.801025,1.801026 0,0.994646 0.806379,1.801025 1.801025,1.801025 0.994646,0 1.801026,-0.806379 1.801026,-1.801025 0,-0.994647 -0.80638,-1.801026 -1.801026,-1.801026 z m -0.163653,-10.19089749 0.08033,-0.01110633 0.104215,-0.003566 0.07204,0.0045386 0.112864,0.01892277 0.08153,0.02310116 0.0706,0.02715946 0.08512,0.0423361 0.0616,0.0383139 0.04563,0.0330188 0.08645,0.0761234 2.401366,2.40136723 c 0.351681,0.3516801 0.351681,0.9218487 0,1.2735169 -0.319741,0.3197061 -0.819946,0.3487746 -1.172467,0.087194 L 13.785054,3.9515234 12.920922,3.0878358 v 2.6282963 c 0,0.4558995 -0.338833,0.832662 -0.778283,0.8923 l -0.122229,0.00821 c -0.455899,0 -0.832674,-0.3387729 -0.892348,-0.7783191 l -0.0082,-0.1221936 V 3.0866349 L 10.255769,3.9515233 C 9.9360274,4.2712294 9.4357986,4.3002979 9.0832659,4.0387169 L 8.9822644,3.9515233 C 8.6625704,3.6318293 8.6335019,3.1315405 8.8950828,2.7790078 L 8.9822644,2.6780058 11.383692,0.27663862 11.516007,0.1671723 11.629951,0.101651 11.733806,0.05949501 Z"
     fill="#212121"
     id="path2"
     style="stroke-width:1.20068" />
</svg>
