<?xml version="1.0" encoding="UTF-8" standalone="no"?>
<svg
   width="76px"
   height="76px"
   viewBox="0 0 76 76"
   version="1.1"
   enable-background="new 0 0 76.00 76.00"
   xml:space="preserve"
   id="svg6"
   sodipodi:docname="md-tool-pipette.svg"
   inkscape:version="1.1.2 (0a00cf5339, 2022-02-04)"
   xmlns:inkscape="http://www.inkscape.org/namespaces/inkscape"
   xmlns:sodipodi="http://sodipodi.sourceforge.net/DTD/sodipodi-0.dtd"
   xmlns="http://www.w3.org/2000/svg"
   xmlns:svg="http://www.w3.org/2000/svg"><defs
   id="defs10" /><sodipodi:namedview
   id="namedview8"
   pagecolor="#ffffff"
   bordercolor="#666666"
   borderopacity="1.0"
   inkscape:pageshadow="2"
   inkscape:pageopacity="0.0"
   inkscape:pagecheckerboard="0"
   showgrid="false"
   inkscape:zoom="10.223684"
   inkscape:cx="38"
   inkscape:cy="37.853282"
   inkscape:window-width="1612"
   inkscape:window-height="930"
   inkscape:window-x="1340"
   inkscape:window-y="117"
   inkscape:window-maximized="0"
   inkscape:current-layer="svg6" />
	<path
   fill="#000000"
   fill-opacity="1"
   stroke-width="0.404009"
   stroke-linejoin="round"
   d="m 48.157182,9.7344323 6.358495,6.3584957 c -0.679544,-1.444333 -1.05911,-3.05754 -1.05911,-4.759226 0,-6.1825491 5.011934,-11.19448247 11.19428,-11.19448247 6.182549,0 11.194483,5.01193337 11.194483,11.19448247 0,6.182347 -5.011934,11.19428 -11.194483,11.19428 -1.701686,0 -3.314893,-0.379566 -4.759225,-1.05911 l 6.358495,6.358496 c 1.248994,1.248993 1.248994,3.274089 0,4.523284 l -0.823169,0.822966 c -1.248993,1.249196 -3.274087,1.249196 -4.523081,0 L 42.810932,15.080885 c -1.249197,-1.249196 -1.249197,-3.27429 0,-4.523284 l 0.822966,-0.8231687 c 1.249195,-1.248994 3.27429,-1.248994 4.523284,0 z"
   id="path2" />
	<path
   fill="#000000"
   fill-opacity="1"
   stroke-width="0.404009"
   stroke-linejoin="round"
   d="m 43.336143,18.004899 14.655223,15.157205 c 0,0 -26.923764,27.746729 -42.717686,33.489313 -3.584165,3.184196 -8.1547186,7.024503 -11.6275796,9.191204 L 0.20394409,72.400465 C 2.3391315,68.963358 6.105909,64.439063 9.2969738,60.81773 15.075716,44.916947 43.336143,18.004899 43.336143,18.004899 Z"
   id="path4" />
</svg>
