<?xml version="1.0" encoding="UTF-8" standalone="no"?>
<svg
   width="32px"
   height="32px"
   viewBox="0 0 32 32"
   version="1.1"
   id="svg4"
   sodipodi:docname="brush-solid-svgrepo-com.svg"
   inkscape:version="1.1.2 (0a00cf5339, 2022-02-04)"
   xmlns:inkscape="http://www.inkscape.org/namespaces/inkscape"
   xmlns:sodipodi="http://sodipodi.sourceforge.net/DTD/sodipodi-0.dtd"
   xmlns="http://www.w3.org/2000/svg"
   xmlns:svg="http://www.w3.org/2000/svg">
  <defs
     id="defs8" />
  <sodipodi:namedview
     id="namedview6"
     pagecolor="#ffffff"
     bordercolor="#666666"
     borderopacity="1.0"
     inkscape:pageshadow="2"
     inkscape:pageopacity="0.0"
     inkscape:pagecheckerboard="0"
     showgrid="false"
     inkscape:zoom="24.28125"
     inkscape:cx="15.979408"
     inkscape:cy="16.123552"
     inkscape:window-width="3840"
     inkscape:window-height="1015"
     inkscape:window-x="0"
     inkscape:window-y="32"
     inkscape:window-maximized="1"
     inkscape:current-layer="svg4" />
  <path
     d="m 19.498494,0.15305512 -0.820762,0.78507626 -6.35198,6.38766552 -0.820762,0.7850763 -1.141929,1.14193 -2.6050256,2.6407098 -0.6423351,0.642335 0.4995939,0.785077 c 0,0 0.6958631,1.070557 1.248985,2.248173 0.2765615,0.588807 0.5263584,1.213298 0.6066497,1.641521 0.040145,0.214113 0.044607,0.343472 0.035686,0.39254 -0.1248986,0.09813 -1.6281408,1.28913 -3.4257872,2.747766 -1.8734773,1.516624 -3.8629313,3.113542 -4.674772,3.925382 -1.77534224,1.775343 -1.77534224,4.683692 0,6.459035 1.7664215,1.766422 4.6480086,1.75304 6.4233509,0 h 0.035686 c 0.8163011,-0.816301 2.4533634,-2.77453 3.9610674,-4.639086 1.472018,-1.819949 2.712081,-3.367799 2.783452,-3.461473 -0.0045,0.0045 0.04907,-0.07137 0.463908,0 0.414842,0.07137 1.003648,0.285483 1.570153,0.570964 1.133008,0.566505 2.176803,1.320356 2.176803,1.320356 l 0.785076,0.570965 0.67802,-0.678021 2.64071,-2.605025 1.14193,-1.141929 0.785076,-0.820762 6.387666,-6.35198 0.785075,-0.820762 -0.785078,-0.82076 L 20.319254,0.93813138 Z m 1.498781,5.95944218 c 0.218572,0.017842 0.388078,0.1025962 0.53528,0.249797 0.584346,0.5888071 -0.26764,2.8771249 -0.678021,3.8540107 -0.410381,0.981345 -0.281022,1.74858 0.249798,2.283858 0.905514,0.914435 3.300887,-1.235603 4.317918,-0.214111 1.01257,1.02149 -0.829682,3.193833 -0.178426,3.85401 0.01338,0.01338 0.0223,0.0223 0.03568,0.03569 l -2.034062,2.03406 -9.278174,-9.2781739 1.570153,-1.5701515 c 0.0223,0.026765 0.04461,0.044607 0.07137,0.07137 0.776156,0.7806159 2.368612,0.035686 3.03325,-0.3925382 0.785075,-0.5040542 1.703972,-0.9813452 2.355228,-0.9278174 z m -8.671523,4.4606597 9.278173,9.278174 -0.321168,0.321167 -1.962691,1.998376 c -0.441605,-0.303325 -0.74939,-0.553121 -1.641522,-0.999188 -0.682481,-0.33901 -1.422951,-0.651256 -2.212488,-0.785076 -0.789536,-0.13382 -1.788723,-0.102601 -2.497969,0.606651 l -0.03569,0.07137 -0.03569,0.03568 c 0,0 -1.347119,1.708433 -2.854822,3.568528 -1.5077028,1.860094 -3.2562817,3.934304 -3.7826402,4.46066 -0.9010528,0.901055 -2.3106215,0.901055 -3.2116755,0 -0.9010527,-0.901052 -0.9010527,-2.310621 0,-3.211675 0.5263586,-0.526357 2.6005653,-2.274937 4.4606604,-3.78264 1.860095,-1.507703 3.5685283,-2.854823 3.5685283,-2.854823 l 0.03569,-0.03568 0.07137,-0.03568 C 11.90645,18.490829 11.861843,17.536248 11.719101,16.782396 11.57636,16.028545 11.255193,15.292537 10.934025,14.605594 10.501342,13.677777 10.247084,13.338767 9.9705228,12.8927 L 12.004584,10.894325 Z M 4.938898,25.9892 c -0.6914026,0 -1.2489848,0.557582 -1.2489848,1.248985 0,0.691402 0.5575822,1.248985 1.2489848,1.248985 0.6914027,0 1.2489849,-0.557583 1.2489849,-1.248985 0,-0.691403 -0.5575822,-1.248985 -1.2489849,-1.248985 z"
     id="path2"
     style="stroke-width:1.14193" />
</svg>
