<?xml version="1.0" encoding="iso-8859-1"?>
<!-- Generator: Adobe Illustrator 16.0.0, SVG Export Plug-In . SVG Version: 6.00 Build 0)  -->
<!DOCTYPE svg PUBLIC "-//W3C//DTD SVG 1.1//EN" "http://www.w3.org/Graphics/SVG/1.1/DTD/svg11.dtd">
<svg version="1.1" id="Capa_1" xmlns="http://www.w3.org/2000/svg" xmlns:xlink="http://www.w3.org/1999/xlink" x="0px" y="0px"
	 width="94.63px" height="94.63px" viewBox="0 0 94.63 94.63" style="enable-background:new 0 0 94.63 94.63;" xml:space="preserve"
	>
<g>
	<path d="M93.949,91.792L59.861,1.295C59.568,0.516,58.822,0,57.989,0H37.522c-0.827,0-1.568,0.509-1.866,1.28L0.686,91.91
		c-0.237,0.615-0.156,1.308,0.216,1.852c0.373,0.543,0.99,0.868,1.649,0.868h17.268c0.835,0,1.583-0.521,1.875-1.304l7.782-20.92
		H64.37l7.199,20.746c0.279,0.806,1.038,1.345,1.891,1.345h18.619c0.655,0,1.271-0.322,1.645-0.862
		C94.098,93.096,94.181,92.406,93.949,91.792z M59.277,57.126H34.775l12.638-38.098L59.277,57.126z"/>
</g>
<g>
</g>
<g>
</g>
<g>
</g>
<g>
</g>
<g>
</g>
<g>
</g>
<g>
</g>
<g>
</g>
<g>
</g>
<g>
</g>
<g>
</g>
<g>
</g>
<g>
</g>
<g>
</g>
<g>
</g>
</svg>
