<?xml version="1.0" encoding="UTF-8" standalone="no"?>
<svg
   width="24"
   height="24"
   viewBox="0 0 24 24"
   fill="none"
   version="1.1"
   id="svg4"
   sodipodi:docname="md-tool-font.svg"
   inkscape:version="1.1.2 (0a00cf5339, 2022-02-04, custom)"
   xmlns:inkscape="http://www.inkscape.org/namespaces/inkscape"
   xmlns:sodipodi="http://sodipodi.sourceforge.net/DTD/sodipodi-0.dtd"
   xmlns="http://www.w3.org/2000/svg"
   xmlns:svg="http://www.w3.org/2000/svg">
  <defs
     id="defs8" />
  <sodipodi:namedview
     id="namedview6"
     pagecolor="#ffffff"
     bordercolor="#666666"
     borderopacity="1.0"
     inkscape:pageshadow="2"
     inkscape:pageopacity="0.0"
     inkscape:pagecheckerboard="0"
     showgrid="false"
     inkscape:zoom="32.375"
     inkscape:cx="11.984556"
     inkscape:cy="15.027027"
     inkscape:window-width="3840"
     inkscape:window-height="1015"
     inkscape:window-x="0"
     inkscape:window-y="32"
     inkscape:window-maximized="1"
     inkscape:current-layer="svg4" />
  <path
     d="m 6.0643407,0.08497683 c 0.3753525,1.196e-5 0.7109934,0.23378511 0.841141,0.58585586 L 10.435181,10.218535 c 0.005,0.01291 0.0099,0.02595 0.01435,0.0391 L 10.71559,10.977252 9.7254914,13.471629 8.9765206,11.445754 H 3.1511446 L 1.8205149,15.044187 C 1.6487306,15.508744 1.1328751,15.746104 0.66831822,15.574272 0.20374938,15.402559 -0.03358718,14.886704 0.13819723,14.422147 l 1.53997327,-4.16463 c 0.00452,-0.01315 0.00934,-0.02619 0.014444,-0.0391 L 5.2231401,0.67076094 C 5.3533236,0.31870216 5.6889764,0.08496487 6.0643407,0.08497683 Z M 3.8143907,9.6520984 H 8.3134299 L 6.0641972,3.5679098 Z M 14.202577,5.4340056 c 0.1356,-0.3417871 0.46623,-0.5661137 0.833929,-0.5659463 0.3677,1.674e-4 0.698092,0.2247929 0.833452,0.5666877 l 6.642387,16.777009 h 0.590711 c 0.495288,0 0.896828,0.401539 0.896828,0.896827 0,0.495289 -0.40154,0.896828 -0.896948,0.896828 h -1.183932 c -0.0043,0 -0.0087,1.2e-4 -0.01303,1.2e-4 -0.0063,0 -0.01267,0 -0.01889,-1.2e-4 l -1.772492,-1.19e-4 c -0.495287,0 -0.896828,-0.401539 -0.896828,-0.896828 0,-0.495289 0.401541,-0.896828 0.896828,-0.896828 h 0.468623 l -1.422256,-3.592214 h -8.262656 l -1.426004,3.592334 h 0.4772799 c 0.4952881,0 0.8968281,0.401539 0.8968281,0.896827 0,0.495289 -0.40154,0.896828 -0.8969476,0.896828 H 8.1679165 c -0.00392,0 -0.00785,1.2e-4 -0.011766,1.2e-4 -0.00725,0 -0.014492,0 -0.021751,-1.2e-4 l -1.1733143,-1.19e-4 c -0.4953122,0 -0.8968161,-0.401539 -0.8968161,-0.896828 1.19e-5,-0.495289 0.4015518,-0.896828 0.8968519,-0.896828 h 0.5813956 z m 4.248214,11.3917604 -3.41572,-8.6273899 -3.424806,8.6273899 z"
     fill="#212121"
     id="path2"
     style="stroke-width:1.19577" />
</svg>
