<?xml version="1.0" encoding="UTF-8" standalone="no"?>
<svg
   width="76px"
   height="76px"
   viewBox="0 0 76 76"
   version="1.1"
   enable-background="new 0 0 76.00 76.00"
   xml:space="preserve"
   id="svg4"
   sodipodi:docname="md-tool-circle.svg"
   inkscape:version="1.1.2 (0a00cf5339, 2022-02-04)"
   xmlns:inkscape="http://www.inkscape.org/namespaces/inkscape"
   xmlns:sodipodi="http://sodipodi.sourceforge.net/DTD/sodipodi-0.dtd"
   xmlns="http://www.w3.org/2000/svg"
   xmlns:svg="http://www.w3.org/2000/svg"><defs
   id="defs8" /><sodipodi:namedview
   id="namedview6"
   pagecolor="#ffffff"
   bordercolor="#666666"
   borderopacity="1.0"
   inkscape:pageshadow="2"
   inkscape:pageopacity="0.0"
   inkscape:pagecheckerboard="0"
   showgrid="false"
   inkscape:zoom="10.223684"
   inkscape:cx="38"
   inkscape:cy="38"
   inkscape:window-width="3840"
   inkscape:window-height="1015"
   inkscape:window-x="0"
   inkscape:window-y="32"
   inkscape:window-maximized="1"
   inkscape:current-layer="svg4" />
	<path
   fill="#000000"
   fill-opacity="1"
   stroke-width="0.339729"
   stroke-linejoin="round"
   d="m 35.726586,34.99942 c -1.876321,0 -3.397286,1.520965 -3.397286,3.397286 0,1.876321 1.520965,3.397286 3.397286,3.397286 1.876321,0 3.397286,-1.520965 3.397286,-3.397286 0,-1.876321 -1.520965,-3.397286 -3.397286,-3.397286 z m 0,-3.397286 c 3.752472,0 6.794572,3.042099 6.794572,6.794572 0,3.752472 -3.0421,6.794572 -6.794572,6.794572 -3.752472,0 -6.794572,-3.0421 -6.794572,-6.794572 0,-3.752473 3.0421,-6.794572 6.794572,-6.794572 z m 33.548201,3.397286 c -1.876321,0 -3.397286,1.520965 -3.397286,3.397286 0,1.876321 1.520965,3.397286 3.397286,3.397286 1.876321,0 3.397286,-1.520965 3.397286,-3.397286 0,-1.876321 -1.520965,-3.397286 -3.397286,-3.397286 z m 6.794572,3.397286 c 0,3.233877 -2.259365,5.940155 -5.285667,6.626407 -3.105969,16.534591 -17.620535,29.045098 -35.057106,29.045098 -19.700863,0 -35.67150511,-15.970643 -35.67150511,-35.671505 0,-19.700863 15.97064211,-35.6715053 35.67150511,-35.6715053 17.436571,0 31.951137,12.5105063 35.057106,29.0450983 3.026302,0.686252 5.285667,3.39253 5.285667,6.626407 z m -13.589144,0 c 0,-2.462183 1.309653,-4.618611 3.270567,-5.810379 C 63.03669,18.478587 50.626234,7.82113 35.726586,7.82113 c -16.886381,0 -30.5755759,13.689195 -30.5755759,30.575576 0,16.886381 13.6891949,30.575575 30.5755759,30.575575 14.899648,0 27.310104,-10.657456 30.024196,-24.765197 -1.960914,-1.191768 -3.270567,-3.348025 -3.270567,-5.810378 z"
   id="path2" />
</svg>
