<?xml version="1.0" encoding="UTF-8" standalone="no"?>
<svg
   width="24"
   height="24"
   viewBox="0 0 24 24"
   fill="none"
   version="1.1"
   id="svg4"
   sodipodi:docname="md-tool-fill.svg"
   inkscape:version="1.1.2 (0a00cf5339, 2022-02-04, custom)"
   xmlns:inkscape="http://www.inkscape.org/namespaces/inkscape"
   xmlns:sodipodi="http://sodipodi.sourceforge.net/DTD/sodipodi-0.dtd"
   xmlns="http://www.w3.org/2000/svg"
   xmlns:svg="http://www.w3.org/2000/svg">
  <defs
     id="defs8" />
  <sodipodi:namedview
     id="namedview6"
     pagecolor="#ffffff"
     bordercolor="#666666"
     borderopacity="1.0"
     inkscape:pageshadow="2"
     inkscape:pageopacity="0.0"
     inkscape:pagecheckerboard="0"
     showgrid="false"
     inkscape:zoom="32.375"
     inkscape:cx="11.984556"
     inkscape:cy="12"
     inkscape:window-width="3840"
     inkscape:window-height="1015"
     inkscape:window-x="0"
     inkscape:window-y="32"
     inkscape:window-maximized="1"
     inkscape:current-layer="svg4" />
  <path
     d="m 12.262143,0.91301702 c 0,-0.48444622 -0.392741,-0.87717501 -0.877176,-0.87717501 -0.484434,0 -0.877175,0.39272879 -0.877175,0.87717501 V 2.3743438 C 10.148618,2.5010079 9.8114905,2.7079744 9.5242215,2.995255 l -8.0450748,8.04504 c -1.02767483,1.027698 -1.02767483,2.693863 0,3.721561 l 5.7059416,5.705965 c 1.0276747,1.027698 2.6938628,1.027698 3.7215257,0 l 8.045099,-8.045098 c 1.027698,-1.027699 1.027698,-2.6938516 0,-3.7215264 L 13.245748,2.995255 C 12.958502,2.7079861 12.621316,2.5010196 12.262143,2.3743554 Z M 2.7196593,12.280854 10.507792,4.4926747 V 6.176067 c 0,0.4844462 0.392741,0.8771751 0.877175,0.8771751 0.484435,0 0.877176,-0.3927289 0.877176,-0.8771751 V 4.492698 l 5.44901,5.4490112 c 0.342566,0.3425778 0.342566,0.8980048 0,1.2404538 l -1.134012,1.13413 H 2.6860927 c 0.010796,-0.01205 0.021988,-0.02386 0.033567,-0.03544 z m 0.5492869,1.789788 H 14.822792 l -5.1566786,5.156619 c -0.3425661,0.342567 -0.8979582,0.342567 -1.2405126,0 z m 17.7897408,0.119529 c -0.384788,-0.721505 -1.419035,-0.721505 -1.80394,0 l -2.348724,4.404004 c -1.308744,2.453985 0.469464,5.417784 3.250694,5.417784 2.78123,0 4.559555,-2.963799 3.250694,-5.417784 z m -2.604742,5.229484 1.702772,-3.192565 1.702772,3.192565 c 0.6856,1.28547 -0.24596,2.837953 -1.702772,2.837953 -1.456812,0 -2.388255,-1.552483 -1.702772,-2.837953 z"
     fill="#212121"
     id="path2"
     style="stroke-width:1.16956" />
</svg>
