<?xml version="1.0" encoding="UTF-8" standalone="no"?>
<svg
   width="24"
   height="24"
   viewBox="0 0 24 24"
   fill="none"
   version="1.1"
   id="svg4"
   sodipodi:docname="md-tool-draw.svg"
   inkscape:version="1.1.2 (0a00cf5339, 2022-02-04, custom)"
   xmlns:inkscape="http://www.inkscape.org/namespaces/inkscape"
   xmlns:sodipodi="http://sodipodi.sourceforge.net/DTD/sodipodi-0.dtd"
   xmlns="http://www.w3.org/2000/svg"
   xmlns:svg="http://www.w3.org/2000/svg">
  <defs
     id="defs8" />
  <sodipodi:namedview
     id="namedview6"
     pagecolor="#ffffff"
     bordercolor="#666666"
     borderopacity="1.0"
     inkscape:pageshadow="2"
     inkscape:pageopacity="0.0"
     inkscape:pagecheckerboard="0"
     showgrid="false"
     inkscape:zoom="32.375"
     inkscape:cx="11.984556"
     inkscape:cy="12"
     inkscape:window-width="3840"
     inkscape:window-height="1015"
     inkscape:window-x="0"
     inkscape:window-y="32"
     inkscape:window-maximized="1"
     inkscape:current-layer="svg4" />
  <path
     d="m 4.5216497,0.03253574 c -0.4964304,0 -0.8988747,0.4024442 -0.8988747,0.89887471 V 14.714756 c 0,1.489375 1.2073206,2.696624 2.6966241,2.696624 h 2.6963366 v 3.594899 c 0,1.654769 1.3414083,2.996249 2.9962973,2.996249 1.654768,0 2.996249,-1.34148 2.996249,-2.996249 V 17.41138 h 2.696863 c 1.489256,0 2.696625,-1.207249 2.696625,-2.696624 V 0.93141045 c 0,-0.49643051 -0.402457,-0.89887471 -0.898875,-0.89887471 z M 5.4205244,10.819392 V 1.8302852 h 7.1907576 v 2.09922 c 0,0.4964425 0.402336,0.8988747 0.898875,0.8988747 0.496419,0 0.898875,-0.4024322 0.898875,-0.8988747 v -2.09922 h 1.198499 v 3.2972163 c 0,0.4964424 0.402336,0.8988747 0.898875,0.8988747 0.496419,0 0.898875,-0.4024323 0.898875,-0.8988747 V 1.8302852 h 1.198739 v 8.9891068 z m 0,3.895364 V 12.617141 H 18.60402 v 2.097615 c 0,0.496418 -0.402456,0.898874 -0.898875,0.898874 h -3.595738 c -0.496538,0 -0.898875,0.402456 -0.898875,0.898875 v 4.493774 c 0,0.661931 -0.536687,1.1985 -1.198499,1.1985 -0.661932,0 -1.1985,-0.536569 -1.1985,-1.1985 v -4.493774 c 0,-0.496419 -0.402456,-0.898875 -0.8988747,-0.898875 H 6.3193991 c -0.4964304,0 -0.8988747,-0.402456 -0.8988747,-0.898874 z"
     fill="#212121"
     id="path2"
     style="stroke-width:1.1985" />
</svg>
