<?xml version="1.0" encoding="iso-8859-1"?>
<!-- Generator: Adobe Illustrator 18.0.0, SVG Export Plug-In . SVG Version: 6.00 Build 0)  -->
<!DOCTYPE svg PUBLIC "-//W3C//DTD SVG 1.1//EN" "http://www.w3.org/Graphics/SVG/1.1/DTD/svg11.dtd">
<svg version="1.1" id="Capa_1" xmlns="http://www.w3.org/2000/svg" xmlns:xlink="http://www.w3.org/1999/xlink" x="0px" y="0px"
	 viewBox="0 0 194.844 194.844" style="enable-background:new 0 0 194.844 194.844;" xml:space="preserve">
<path d="M0.009,176.554l18.284,18.29l36.872-21.199l71.416-71.416l14.562,14.561l31.673-31.674l-7.496-7.496l19.574-19.573
	c13.255-13.259,13.254-34.831-0.002-48.087C178.469,3.537,169.93,0,160.847,0c-9.083,0-17.622,3.537-24.042,9.96l-19.573,19.572
	l-7.497-7.495L78.057,53.708L92.62,68.27l-71.413,71.416L0.009,176.554z M109.735,43.247l7.643,7.642l5.3-5.583l24.734-24.739
	C151,16.977,155.772,15,160.847,15c5.076,0,9.849,1.977,13.438,5.566c7.409,7.409,7.409,19.465,0.003,26.875L149.647,72.08
	c-0.082,0.077-0.163,0.154-0.242,0.234l-5.3,5.303l7.498,7.499l-10.46,10.461L99.272,53.708L109.735,43.247z M102.895,79.208
	l12.749,12.747l-69.68,69.678l-25.186,14.481l-2.04-2.04l14.481-25.186L102.895,79.208z"/>
<g>
</g>
<g>
</g>
<g>
</g>
<g>
</g>
<g>
</g>
<g>
</g>
<g>
</g>
<g>
</g>
<g>
</g>
<g>
</g>
<g>
</g>
<g>
</g>
<g>
</g>
<g>
</g>
<g>
</g>
</svg>
