<?xml version="1.0" encoding="UTF-8" standalone="no"?>
<svg
   width="24"
   height="24"
   viewBox="0 0 24 24"
   fill="none"
   version="1.1"
   id="svg4"
   sodipodi:docname="md-tool-erase.svg"
   inkscape:version="1.1.2 (0a00cf5339, 2022-02-04, custom)"
   xmlns:inkscape="http://www.inkscape.org/namespaces/inkscape"
   xmlns:sodipodi="http://sodipodi.sourceforge.net/DTD/sodipodi-0.dtd"
   xmlns="http://www.w3.org/2000/svg"
   xmlns:svg="http://www.w3.org/2000/svg">
  <defs
     id="defs8" />
  <sodipodi:namedview
     id="namedview6"
     pagecolor="#ffffff"
     bordercolor="#666666"
     borderopacity="1.0"
     inkscape:pageshadow="2"
     inkscape:pageopacity="0.0"
     inkscape:pagecheckerboard="0"
     showgrid="false"
     inkscape:zoom="32.375"
     inkscape:cx="11.984556"
     inkscape:cy="12"
     inkscape:window-width="3840"
     inkscape:window-height="1015"
     inkscape:window-x="0"
     inkscape:window-y="32"
     inkscape:window-maximized="1"
     inkscape:current-layer="svg4" />
  <path
     d="m 17.006914,0.85466418 6.122251,6.12227552 c 1.082745,1.0827211 1.082745,2.8381566 0,3.9209023 l -10.697829,10.696227 7.513913,2.45e-4 c 0.467871,0 0.854539,0.347608 0.915657,0.798721 l 0.0085,0.125439 c 0,0.467872 -0.347731,0.854541 -0.798844,0.915658 l -0.125316,0.0085 -10.3629739,0.0015 C 8.8229728,23.485516 8.0498823,23.216276 7.4698549,22.636274 L 1.3475794,16.513899 c -1.08272105,-1.082622 -1.08272105,-2.838156 0,-3.920778 L 13.086011,0.85466418 c 1.082746,-1.08272103 2.838156,-1.08272103 3.920903,0 z M 4.4860139,12.066596 2.6545385,13.900006 c -0.3609151,0.360916 -0.3609151,0.946094 0,1.307009 l 6.1222757,6.12225 c 0.1804576,0.18052 0.4169686,0.270718 0.6534795,0.270718 l 0.035587,-0.0057 0.04744,0.002 c 0.2081208,-0.01872 0.4110785,-0.107694 0.5704033,-0.26702 l 1.831315,-1.832437 z m 9.9068821,-9.9049727 -8.599504,8.5975947 7.429025,7.430246 8.599739,-8.5986059 c 0.360916,-0.3609029 0.360916,-0.9460562 0,-1.3069591 L 15.699905,2.1616233 c -0.360915,-0.3609151 -0.946093,-0.3609151 -1.307009,0 z"
     fill="#000000"
     id="path2"
     style="stroke-width:1.23221" />
</svg>
